<?xml version="1.0" encoding="utf-8"?>
<!-- Generator: Adobe Illustrator 19.0.0, SVG Export Plug-In . SVG Version: 6.00 Build 0)  -->
<svg version="1.1" id="_x31__x2C_5_px" xmlns="http://www.w3.org/2000/svg" xmlns:xlink="http://www.w3.org/1999/xlink" x="0px"
	 y="0px" viewBox="-223 25 512 512" style="enable-background:new -223 25 512 512;" xml:space="preserve">
<style type="text/css">
	.st0{fill:#007AFF;}
</style>
<g>
	<path class="st0" d="M150.3,537c-76.5,0-138.7-62.2-138.7-138.7s62.2-138.7,138.7-138.7S289,321.9,289,398.3S226.8,537,150.3,537z
		 M150.3,291.7c-58.8,0-106.7,47.9-106.7,106.7S91.5,505,150.3,505S257,457.1,257,398.3S209.1,291.7,150.3,291.7z"/>
	<path class="st0" d="M150.3,473c-8.8,0-16-7.2-16-16V339.7c0-8.8,7.2-16,16-16s16,7.2,16,16V457C166.3,465.8,159.2,473,150.3,473z"
		/>
	<path class="st0" d="M209,414.3H91.7c-8.8,0-16-7.2-16-16s7.2-16,16-16H209c8.8,0,16,7.2,16,16S217.8,414.3,209,414.3z"/>
	<g>
		<g>
			<g>
				<path class="st0" d="M42.5,244c0-11-9-20-20-20h-122c-11,0-20,9-20,20s9,20,20,20h122C33.5,264,42.5,255,42.5,244z"/>
				<path class="st0" d="M-99.5,304c-11,0-20,9-20,20s9,20,20,20h65.1c11,0,20-9,20-20s-9-20-20-20H-99.5z"/>
				<path class="st0" d="M-12.5,496h-106.9c-22.1,0-40-17.9-40-40V104c0-22.1,17.9-40,40-40h245.9c22.1,0,40,17.9,40,40v93
					c0,11,9,20,20,20s20-9,20-20v-93c0-44.1-35.9-80-80-80h-245.9c-44.1,0-80,35.9-80,80v352c0,44.1,35.9,80,80,80h106.9
					c11,0,20-9,20-20S-1.5,496-12.5,496z"/>
				<path class="st0" d="M106.5,144h-206c-11,0-20,9-20,20s9,20,20,20h206c11,0,20-9,20-20S117.5,144,106.5,144z"/>
			</g>
		</g>
	</g>
</g>
</svg>
