<?xml version="1.0" encoding="utf-8"?>
<!-- Generator: Adobe Illustrator 19.0.0, SVG Export Plug-In . SVG Version: 6.00 Build 0)  -->
<svg version="1.1" id="Capa_1" xmlns="http://www.w3.org/2000/svg" xmlns:xlink="http://www.w3.org/1999/xlink" x="0px" y="0px"
	 viewBox="0 0 512 512" style="enable-background:new 0 0 512 512;" xml:space="preserve">
<style type="text/css">
	.st0{fill:#E16259;}
</style>
<g>
	<g>
		<g>
			<path class="st0" d="M472,83H351V60c0-33.1-26.9-60-60-60h-70c-33.1,0-60,26.9-60,60v23H40c-11,0-20,9-20,20s9,20,20,20h20.7
				l24.4,316c0,0.1,0,0.2,0,0.3c1.8,19.9,11,38.3,25.7,51.8c14.8,13.5,33.9,20.9,53.9,20.9h182.4c41.7,0,75.9-31,79.7-72.2
				c1-11-7.1-20.7-18.1-21.7c-11-1-20.7,7.1-21.7,18.1c-1.9,20.4-19,35.8-39.8,35.8H164.8c-20.8,0-37.9-15.6-39.8-36.2L100.8,123
				h310.3l-17.1,221.5c-0.8,11,7.4,20.6,18.4,21.5c0.5,0,1,0.1,1.6,0.1c10.3,0,19.1-8,19.9-18.5L451.3,123H472c11,0,20-9,20-20
				S483,83,472,83z M311,83H201V60c0-11,9-20,20-20h70c11,0,20,9,20,20V83z"/>
			<path class="st0" d="M165.1,163c-11,0.5-19.6,9.8-19.1,20.9l10,228.9c0.5,10.7,9.3,19.1,20,19.1c0.3,0,0.6,0,0.9,0
				c11-0.5,19.6-9.8,19.1-20.9l-10-228.9C185.5,171.1,176.1,162.5,165.1,163z"/>
			<path class="st0" d="M326,182.1l-10,228.9c-0.5,11,8.1,20.4,19.1,20.9c0.3,0,0.6,0,0.9,0c10.6,0,19.5-8.4,20-19.1l10-228.9
				c0.5-11-8.1-20.4-19.1-20.9C335.9,162.5,326.5,171.1,326,182.1z"/>
			<path class="st0" d="M236,183v228.9c0,11,9,20,20,20c11,0,20-9,20-20V183c0-11-9-20-20-20S236,172,236,183z"/>
		</g>
	</g>
</g>
</svg>
