<?xml version="1.0" encoding="utf-8"?>
<!-- Generator: Adobe Illustrator 19.0.0, SVG Export Plug-In . SVG Version: 6.00 Build 0)  -->
<svg version="1.1" id="Layer_1" xmlns="http://www.w3.org/2000/svg" xmlns:xlink="http://www.w3.org/1999/xlink" x="0px" y="0px"
	 viewBox="0 0 512 512" style="enable-background:new 0 0 512 512;" xml:space="preserve">
<path d="M124.1,430.8H83c-10.5,0-19-8.5-19-19V264.1c0-10.5,8.5-19,19-19h41.1c10.5,0,19,8.5,19,19v147.7
	C143.1,422.3,134.6,430.8,124.1,430.8z"/>
<path d="M293.8,430.8h-41.1c-10.5,0-19-8.5-19-19V172.7c0-10.5,8.5-19,19-19h41.1c10.5,0,19,8.5,19,19v239.1
	C312.8,422.3,304.3,430.8,293.8,430.8z"/>
<path d="M463.6,430.8h-41.1c-10.5,0-19-8.5-19-19V78.6c0-10.5,8.5-19,19-19h41.1c10.5,0,19,8.5,19,19v333.2
	C482.6,422.3,474,430.8,463.6,430.8z"/>
</svg>
