<?xml version="1.0" encoding="utf-8"?>
<!-- Generator: Adobe Illustrator 19.0.0, SVG Export Plug-In . SVG Version: 6.00 Build 0)  -->
<svg version="1.1" id="Capa_1" xmlns="http://www.w3.org/2000/svg" xmlns:xlink="http://www.w3.org/1999/xlink" x="0px" y="0px"
	 viewBox="0 0 512 512" style="enable-background:new 0 0 512 512;" xml:space="preserve">
<g>
	<path d="M419.1,377.5c0,22.9-18.6,41.5-41.5,41.5h-84v60h84c56,0,101.5-45.5,101.5-101.5v-88.2h-60V377.5z M377.5,32.9h-84v60h84
		c22.9,0,41.5,18.6,41.5,41.5v74.3h60v-74.3C479.1,78.5,433.5,32.9,377.5,32.9z M92.9,377.5v-88.2h-60v88.2
		c0,56,45.5,101.5,101.5,101.5h78.5v-60h-78.5C111.6,419.1,92.9,400.4,92.9,377.5z M32.9,134.5v74.3h60v-74.3
		c0-22.9,18.6-41.5,41.5-41.5h78.5v-60h-78.5C78.5,32.9,32.9,78.5,32.9,134.5z"/>
</g>
</svg>
