<?xml version="1.0" encoding="utf-8"?>
<!-- Generator: Adobe Illustrator 19.0.0, SVG Export Plug-In . SVG Version: 6.00 Build 0)  -->
<svg version="1.1" id="Capa_1" xmlns="http://www.w3.org/2000/svg" xmlns:xlink="http://www.w3.org/1999/xlink" x="0px" y="0px"
	 viewBox="-223 25 512 512" style="enable-background:new -223 25 512 512;" xml:space="preserve">
<style type="text/css">
	.st0{fill:#AF52DE;}
</style>
<g>
	<g>
		<g>
			<path class="st0" d="M129.5,245c0-11-9-20-20-20h-206c-11,0-20,9-20,20s9,20,20,20h206C120.5,265,129.5,256,129.5,245z"/>
			<path class="st0" d="M-96.5,305c-11,0-20,9-20,20s9,20,20,20H28.6c11,0,20-9,20-20s-9-20-20-20H-96.5z"/>
			<path class="st0" d="M-49.5,497h-66.9c-22.1,0-40-17.9-40-40V105c0-22.1,17.9-40,40-40h245.9c22.1,0,40,17.9,40,40v123
				c0,11,9,20,20,20s20-9,20-20V105c0-44.1-35.9-80-80-80h-245.9c-44.1,0-80,35.9-80,80v352c0,44.1,35.9,80,80,80h66.9
				c11,0,20-9,20-20S-38.5,497-49.5,497z"/>
			<path class="st0" d="M244.9,314.6c-23.4-23.4-61.5-23.4-84.8,0L50.2,424.1c-2.3,2.3-4.1,5.2-5,8.3l-23.9,78.7
				c-2.1,7-0.3,14.6,4.8,19.8c3.8,3.9,9,6,14.3,6c1.8,0,3.6-0.2,5.3-0.7l80.7-22.4c3.3-0.9,6.4-2.7,8.8-5.1l109.6-109.4
				C268.3,376,268.3,338,244.9,314.6z M110.8,476.8L70.2,488l11.9-39.1l74.1-73.9l28.3,28.3L110.8,476.8z M216.6,371.1l-3.9,3.9
				l-28.3-28.3l3.9-3.9c7.8-7.8,20.5-7.8,28.3,0S224.4,363.3,216.6,371.1z"/>
			<path class="st0" d="M109.5,145h-206c-11,0-20,9-20,20s9,20,20,20h206c11,0,20-9,20-20S120.5,145,109.5,145z"/>
		</g>
	</g>
</g>
</svg>
