<?xml version="1.0" encoding="utf-8"?>
<!-- Generator: Adobe Illustrator 19.0.0, SVG Export Plug-In . SVG Version: 6.00 Build 0)  -->
<svg version="1.1" id="Capa_1" xmlns="http://www.w3.org/2000/svg" xmlns:xlink="http://www.w3.org/1999/xlink" x="0px" y="0px"
	 viewBox="-15 17 480 480" style="enable-background:new -15 17 480 480;" xml:space="preserve">
<style type="text/css">
	.st0{stroke:#000000;stroke-width:20;stroke-miterlimit:10;}
</style>
<g>
	<g>
		<path class="st0" d="M81,65H17C8.2,65,1,72.2,1,81v64c0,8.8,7.2,16,16,16s16-7.2,16-16V97h48c8.8,0,16-7.2,16-16S89.8,65,81,65z"
			/>
	</g>
</g>
<g>
	<g>
		<path class="st0" d="M434,353c-8.8,0-16,7.2-16,16v48h-48c-8.8,0-16,7.2-16,16s7.2,16,16,16h64c8.8,0,16-7.2,16-16v-64
			C450,360.2,442.8,353,434,353z"/>
	</g>
</g>
<g>
	<g>
		<path class="st0" d="M434,65h-64c-8.8,0-16,7.2-16,16s7.2,16,16,16h48v48c0,8.8,7.2,16,16,16s16-7.2,16-16V81
			C450,72.2,442.8,65,434,65z"/>
	</g>
</g>
<g>
	<g>
		<path class="st0" d="M81,417H33v-48c0-8.8-7.2-16-16-16s-16,7.2-16,16v64c0,8.8,7.2,16,16,16h64c8.8,0,16-7.2,16-16
			S89.8,417,81,417z"/>
	</g>
</g>
<g>
	<g>
		<g>
			<path class="st0" d="M329,129L329,129c8.8,0,16,7.2,16,16v224c0,8.8-7.2,16-16,16h0c-8.8,0-16-7.2-16-16V145
				C313,136.2,320.2,129,329,129z"/>
		</g>
	</g>
	<g>
		<g>
			<g>
				<path class="st0" d="M121,129L121,129c8.8,0,16,7.2,16,16v160c0,8.8-7.2,16-16,16h0c-8.8,0-16-7.2-16-16V145
					C105,136.2,112.2,129,121,129z"/>
			</g>
		</g>
		<g>
			<g>
				<path class="st0" d="M121,353L121,353c8.8,0,16,7.2,16,16v0c0,8.8-7.2,16-16,16h0c-8.8,0-16-7.2-16-16v0
					C105,360.2,112.2,353,121,353z"/>
			</g>
		</g>
	</g>
	<g>
		<g>
			<g>
				<path class="st0" d="M225,129L225,129c8.8,0,16,7.2,16,16v80c0,8.8-7.2,16-16,16h0c-8.8,0-16-7.2-16-16v-80
					C209,136.2,216.2,129,225,129z"/>
			</g>
		</g>
		<g>
			<g>
				<path class="st0" d="M225,273L225,273c8.8,0,16,7.2,16,16v80c0,8.8-7.2,16-16,16h0c-8.8,0-16-7.2-16-16v-80
					C209,280.2,216.2,273,225,273z"/>
			</g>
		</g>
	</g>
</g>
</svg>
