<svg height="512pt" viewBox="0 0 512 512" width="512pt" xmlns="http://www.w3.org/2000/svg"><path d="m239 375v-79.621094l-71 40.03125c-9.617188 5.433594-21.8125 2.039063-27.246094-7.574218l-.0625-.109376c-5.433594-9.617187-2.042968-21.816406 7.574219-27.25l69.960937-39.476562-69.960937-39.476562c-9.617187-5.433594-13.007813-17.632813-7.574219-27.25l.0625-.109376c5.433594-9.613281 17.628906-13.007812 27.246094-7.574218l71 40.03125v-79.621094c0-11.046875 8.953125-20 20-20s20 8.953125 20 20v79.621094l71-40.03125c9.617188-5.433594 21.8125-2.039063 27.246094 7.574218l.0625.109376c5.433594 9.617187 2.042968 21.816406-7.570313 27.25l-69.964843 39.476562 69.960937 39.476562c9.617187 5.433594 13.007813 17.632813 7.574219 27.25l-.0625.109376c-5.433594 9.613281-17.632813 13.003906-27.246094 7.574218l-71-40.035156v79.625c0 11.046875-8.953125 20-20 20s-20-8.953125-20-20zm198.019531-300.019531c-48.351562-48.351563-112.640625-74.980469-181.019531-74.980469s-132.667969 26.628906-181.019531 74.980469c-48.351563 48.351562-74.980469 112.640625-74.980469 181.019531s26.628906 132.667969 74.980469 181.019531c48.351562 48.351563 112.640625 74.980469 181.019531 74.980469 46.8125 0 92.617188-12.757812 132.460938-36.894531 9.449218-5.722657 12.46875-18.019531 6.746093-27.464844-5.726562-9.449219-18.023437-12.46875-27.46875-6.746094-33.59375 20.347657-72.234375 31.105469-111.738281 31.105469-119.101562 0-216-96.898438-216-216s96.898438-216 216-216 216 96.898438 216 216c0 42.589844-12.664062 84.042969-36.625 119.886719-6.140625 9.179687-3.671875 21.601562 5.507812 27.742187 9.183594 6.140625 21.605469 3.671875 27.742188-5.511718 28.378906-42.441407 43.375-91.585938 43.375-142.117188 0-68.378906-26.628906-132.667969-74.980469-181.019531zm0 0"/></svg>