<?xml version="1.0" encoding="utf-8"?>
<!-- Generator: Adobe Illustrator 19.0.0, SVG Export Plug-In . SVG Version: 6.00 Build 0)  -->
<svg version="1.1" id="Capa_1" xmlns="http://www.w3.org/2000/svg" xmlns:xlink="http://www.w3.org/1999/xlink" x="0px" y="0px"
	 viewBox="0 0 512 512" style="enable-background:new 0 0 512 512;" xml:space="preserve">
<style type="text/css">
	.st0{fill:none;stroke:#000000;stroke-width:50;stroke-miterlimit:10;}
	.st1{fill:none;stroke:#000000;stroke-width:50;stroke-linecap:round;stroke-miterlimit:10;}
</style>
<g>
	<path class="st0" d="M150.2,210.4H83c-24.3,0-44-19.7-44-44V99.2c0-24.3,19.7-44,44-44h67.2c24.3,0,44,19.7,44,44v67.2
		C194.2,190.7,174.5,210.4,150.2,210.4z"/>
	<path class="st0" d="M150.2,461.4H83c-24.3,0-44-19.7-44-44v-67.2c0-24.3,19.7-44,44-44h67.2c24.3,0,44,19.7,44,44v67.2
		C194.2,441.7,174.5,461.4,150.2,461.4z"/>
	<path class="st0" d="M424.4,461.4h-67.2c-24.3,0-44-19.7-44-44v-67.2c0-24.3,19.7-44,44-44h67.2c24.3,0,44,19.7,44,44v67.2
		C468.4,441.7,448.7,461.4,424.4,461.4z"/>
	<line class="st1" x1="390.8" y1="50.6" x2="390.8" y2="215"/>
	<line class="st1" x1="473" y1="132.8" x2="308.5" y2="132.8"/>
</g>
</svg>
