<?xml version="1.0" encoding="utf-8"?>
<!-- Generator: Adobe Illustrator 19.0.0, SVG Export Plug-In . SVG Version: 6.00 Build 0)  -->
<svg version="1.1" id="Capa_1" xmlns="http://www.w3.org/2000/svg" xmlns:xlink="http://www.w3.org/1999/xlink" x="0px" y="0px"
	 viewBox="0 0 512 512" style="enable-background:new 0 0 512 512;" xml:space="preserve">
<style type="text/css">
	.st0{stroke:#000000;stroke-width:20;stroke-miterlimit:10;}
</style>
<g>
	<g>
		<path class="st0" d="M415.8,96.2C373.1,53.5,316.4,30,256,30S138.9,53.5,96.2,96.2C53.5,138.9,30,195.6,30,256
			s23.5,117.1,66.2,159.8C138.9,458.5,195.6,482,256,482s117.1-23.5,159.8-66.2C458.5,373.1,482,316.4,482,256
			S458.5,138.9,415.8,96.2z M256,455.5C146,455.5,56.5,366,56.5,256S146,56.5,256,56.5S455.5,146,455.5,256S366,455.5,256,455.5z"/>
	</g>
</g>
<g>
	<g>
		<path class="st0" d="M272.1,241h-32.1c-18.3,0-33.2-14.9-33.2-33.2c0-18.3,14.9-33.2,33.2-33.2h64.3c8.3,0,15-6.7,15-15
			s-6.7-15-15-15H271v-33.2c0-8.3-6.7-15-15-15s-15,6.7-15,15v33.2h-1.1c-34.8,0-63.2,28.4-63.2,63.2s28.4,63.2,63.2,63.2h32.1
			c18.3,0,33.2,14.9,33.2,33.2s-14.9,33.2-33.2,33.2h-64.3c-8.3,0-15,6.7-15,15s6.7,15,15,15H241v33.2c0,8.3,6.7,15,15,15
			s15-6.7,15-15v-33.2h1.1c34.8,0,63.2-28.4,63.2-63.2S306.9,241,272.1,241z"/>
	</g>
</g>
</svg>
