<?xml version="1.0" encoding="utf-8"?>
<!-- Generator: Adobe Illustrator 19.0.0, SVG Export Plug-In . SVG Version: 6.00 Build 0)  -->
<svg version="1.1" id="bold" xmlns="http://www.w3.org/2000/svg" xmlns:xlink="http://www.w3.org/1999/xlink" x="0px" y="0px"
	 viewBox="0 0 512 512" style="enable-background:new 0 0 512 512;" xml:space="preserve">
<style type="text/css">
	.st0{stroke:#000000;stroke-width:20;stroke-miterlimit:10;}
</style>
<g>
	<path class="st0" d="M427.3,110.9c-3.7,0-7.3-1.3-10.2-4C372.5,66.3,315.3,44,256,44S139.5,66.3,94.9,107c-6.2,5.6-15.8,5.2-21.4-1
		c-5.6-6.2-5.2-15.8,1-21.4C124.7,38.8,189.2,13.7,256,13.7s131.3,25.2,181.5,70.9c6.2,5.6,6.6,15.2,1,21.4
		C435.5,109.3,431.4,110.9,427.3,110.9L427.3,110.9z"/>
</g>
<g>
	<path class="st0" d="M303.8,498.3c-36.4,0-120.9-69.3-129.1-146.5c-2.9-27.3,5.8-55.2,23.2-74.7c15.1-16.9,35.6-26.3,57.6-26.4h0.4
		c21.4,0,41.7,8.4,57.2,23.7c16.1,16,25,37.5,25,60.5v9.9c0,24.3,18.9,44.1,42.2,44.1s42.3-19.8,42.3-44.1v-3.5
		c0-94.3-68.3-172.8-155.5-178.6c-45.5-3.1-89.1,12.6-122.8,44.1c-34.9,32.7-55,79.4-55,128.1c0,40.1,13.6,79.1,38.2,109.9
		c5.2,6.5,4.2,16.1-2.4,21.3c-6.5,5.2-16.1,4.2-21.3-2.4C75,427.7,59.1,381.9,59.1,335c0-57.1,23.5-111.8,64.6-150.2
		c39.8-37.3,91.5-55.8,145.5-52.2c103.1,6.9,183.8,98.6,183.8,208.8v3.5c0,41-32.6,74.4-72.6,74.4s-72.5-33.4-72.5-74.4V335
		c0-14.9-5.7-28.8-16-39.1c-9.7-9.7-22.4-14.9-35.8-14.9c-0.1,0-0.2,0-0.3,0c-17.1,0.1-28.6,8.9-35.2,16.4
		c-11.8,13.2-17.7,32.4-15.7,51.3c6.7,63,79,119.4,99,119.4c8.4,0,15.1,6.8,15.1,15.1S312.2,498.3,303.8,498.3L303.8,498.3z"/>
</g>
</svg>
