<?xml version="1.0" encoding="utf-8"?>
<!-- Generator: Adobe Illustrator 19.0.0, SVG Export Plug-In . SVG Version: 6.00 Build 0)  -->
<svg version="1.1" id="Capa_1" xmlns="http://www.w3.org/2000/svg" xmlns:xlink="http://www.w3.org/1999/xlink" x="0px" y="0px"
	 viewBox="0 0 512 512" style="enable-background:new 0 0 512 512;" xml:space="preserve">
<style type="text/css">
	.st0{stroke:#000000;stroke-width:10;stroke-miterlimit:10;}
	.st1{stroke:#000000;stroke-width:20;stroke-miterlimit:10;}
</style>
<g>
	<g>
		<path class="st0" d="M432.1,79.9C385,32.9,322.5,7,256,7S127,32.9,79.9,79.9C32.9,127,7,189.5,7,256s25.9,129,72.9,176.1
			c47,47,109.6,72.9,176.1,72.9c45.5,0,90.1-12.4,128.8-35.9c9.2-5.6,12.1-17.5,6.6-26.7c-5.6-9.2-17.5-12.1-26.7-6.6
			c-32.7,19.8-70.3,30.3-108.7,30.3c-115.8,0-210.1-94.2-210.1-210.1S140.2,45.9,256,45.9S466.1,140.2,466.1,256
			c0,41.4-12.3,81.7-35.6,116.6c-6,8.9-3.6,21,5.4,27c8.9,6,21,3.6,27-5.4C490.4,352.9,505,305.1,505,256
			C505,189.5,479.1,127,432.1,79.9z"/>
	</g>
</g>
<g>
	<g>
		<path class="st1" d="M262.9,133c-8.2,0-14.9,6.7-14.9,14.9v112.7L193.6,315c-5.8,5.8-5.8,15.2,0,21c2.9,2.9,6.7,4.4,10.5,4.4
			s7.6-1.5,10.5-4.4l58.8-58.8c2.8-2.8,4.4-6.6,4.4-10.5V147.9C277.8,139.7,271.1,133,262.9,133z"/>
	</g>
</g>
</svg>
